<svg xmlns="http://www.w3.org/2000/svg" xmlns:xlink="http://www.w3.org/1999/xlink" width="435" zoomAndPan="magnify" viewBox="0 0 326.25 350.249992" height="467" preserveAspectRatio="xMidYMid meet" version="1.0"><defs><g/><clipPath id="c3500f43d2"><path d="M 65.378906 260.582031 L 259.75 260.582031 L 259.75 273.351562 L 65.378906 273.351562 Z M 65.378906 260.582031 " clip-rule="nonzero"/></clipPath><clipPath id="c0f0a423ef"><path d="M 0.378906 0.582031 L 194.75 0.582031 L 194.75 13.351562 L 0.378906 13.351562 Z M 0.378906 0.582031 " clip-rule="nonzero"/></clipPath><clipPath id="944d00f248"><rect x="0" width="195" y="0" height="14"/></clipPath></defs><g fill="#111111" fill-opacity="1"><g transform="translate(64.259936, 253.446685)"><g><path d="M 52.484375 1.59375 C 43.304688 1.59375 35.253906 -0.0351562 28.328125 -3.296875 C 21.410156 -6.554688 16.054688 -11.144531 12.265625 -17.0625 C 8.472656 -22.976562 6.578125 -29.796875 6.578125 -37.515625 L 6.578125 -42.703125 C 6.578125 -43.367188 6.8125 -43.929688 7.28125 -44.390625 C 7.75 -44.859375 8.316406 -45.09375 8.984375 -45.09375 L 31.921875 -45.09375 C 32.585938 -45.09375 33.15625 -44.859375 33.625 -44.390625 C 34.09375 -43.929688 34.328125 -43.367188 34.328125 -42.703125 L 34.328125 -38.90625 C 34.328125 -34.25 36.054688 -30.359375 39.515625 -27.234375 C 42.972656 -24.109375 47.628906 -22.546875 53.484375 -22.546875 C 58.671875 -22.546875 62.625 -23.875 65.34375 -26.53125 C 68.070312 -29.195312 69.4375 -32.59375 69.4375 -36.71875 C 69.4375 -39.78125 68.570312 -42.40625 66.84375 -44.59375 C 65.113281 -46.789062 62.6875 -48.851562 59.5625 -50.78125 C 56.4375 -52.707031 51.613281 -55.335938 45.09375 -58.671875 C 37.113281 -62.660156 30.59375 -66.382812 25.53125 -69.84375 C 20.476562 -73.300781 16.15625 -77.753906 12.5625 -83.203125 C 8.976562 -88.660156 7.1875 -95.25 7.1875 -102.96875 C 7.1875 -110.6875 9.015625 -117.4375 12.671875 -123.21875 C 16.328125 -129.007812 21.476562 -133.46875 28.125 -136.59375 C 34.78125 -139.71875 42.367188 -141.28125 50.890625 -141.28125 C 59.796875 -141.28125 67.707031 -139.582031 74.625 -136.1875 C 81.539062 -132.800781 86.925781 -128.046875 90.78125 -121.921875 C 94.644531 -115.804688 96.578125 -108.753906 96.578125 -100.765625 L 96.578125 -96.78125 C 96.578125 -96.113281 96.34375 -95.546875 95.875 -95.078125 C 95.414062 -94.617188 94.851562 -94.390625 94.1875 -94.390625 L 71.234375 -94.390625 C 70.566406 -94.390625 70 -94.617188 69.53125 -95.078125 C 69.070312 -95.546875 68.84375 -96.113281 68.84375 -96.78125 L 68.84375 -100.375 C 68.84375 -105.164062 67.175781 -109.15625 63.84375 -112.34375 C 60.519531 -115.539062 56 -117.140625 50.28125 -117.140625 C 45.5 -117.140625 41.742188 -115.90625 39.015625 -113.4375 C 36.285156 -110.976562 34.921875 -107.554688 34.921875 -103.171875 C 34.921875 -100.109375 35.71875 -97.445312 37.3125 -95.1875 C 38.90625 -92.925781 41.363281 -90.765625 44.6875 -88.703125 C 48.019531 -86.640625 53.078125 -83.941406 59.859375 -80.609375 L 64.046875 -78.21875 C 71.765625 -73.96875 77.785156 -70.273438 82.109375 -67.140625 C 86.429688 -64.015625 90.054688 -60.054688 92.984375 -55.265625 C 95.910156 -50.484375 97.375 -44.695312 97.375 -37.90625 C 97.375 -25.800781 93.28125 -16.191406 85.09375 -9.078125 C 76.914062 -1.960938 66.046875 1.59375 52.484375 1.59375 Z M 52.484375 1.59375 "/></g></g></g><g fill="#111111" fill-opacity="1"><g transform="translate(162.998078, 253.446685)"><g><path d="M 95.390625 -117.9375 C 95.390625 -117.269531 95.15625 -116.703125 94.6875 -116.234375 C 94.21875 -115.765625 93.648438 -115.53125 92.984375 -115.53125 L 39.703125 -115.53125 C 39.046875 -115.53125 38.71875 -115.203125 38.71875 -114.546875 L 38.71875 -83.40625 C 38.71875 -82.738281 39.046875 -82.40625 39.703125 -82.40625 L 72.828125 -82.40625 C 73.492188 -82.40625 74.0625 -82.171875 74.53125 -81.703125 C 75 -81.242188 75.234375 -80.679688 75.234375 -80.015625 L 75.234375 -60.65625 C 75.234375 -60 75 -59.4375 74.53125 -58.96875 C 74.0625 -58.5 73.492188 -58.265625 72.828125 -58.265625 L 39.703125 -58.265625 C 39.046875 -58.265625 38.71875 -57.929688 38.71875 -57.265625 L 38.71875 -2.390625 C 38.71875 -1.722656 38.484375 -1.15625 38.015625 -0.6875 C 37.546875 -0.226562 36.976562 0 36.3125 0 L 12.96875 0 C 12.300781 0 11.734375 -0.226562 11.265625 -0.6875 C 10.804688 -1.15625 10.578125 -1.722656 10.578125 -2.390625 L 10.578125 -137.28125 C 10.578125 -137.945312 10.804688 -138.515625 11.265625 -138.984375 C 11.734375 -139.453125 12.300781 -139.6875 12.96875 -139.6875 L 92.984375 -139.6875 C 93.648438 -139.6875 94.21875 -139.453125 94.6875 -138.984375 C 95.15625 -138.515625 95.390625 -137.945312 95.390625 -137.28125 Z M 95.390625 -117.9375 "/></g></g></g><g clip-path="url(#c3500f43d2)"><g transform="matrix(1, 0, 0, 1, 65, 260)"><g clip-path="url(#944d00f248)"><g clip-path="url(#c0f0a423ef)"><path fill="#111111" d="M 0.378906 0.582031 L 194.761719 0.582031 L 194.761719 13.351562 L 0.378906 13.351562 Z M 0.378906 0.582031 " fill-opacity="1" fill-rule="nonzero"/></g></g></g></g></svg>