<svg xmlns="http://www.w3.org/2000/svg" xmlns:xlink="http://www.w3.org/1999/xlink" width="1985" zoomAndPan="magnify" viewBox="0 0 1488.75 418.499988" height="558" preserveAspectRatio="xMidYMid meet" version="1.0"><defs><g/><clipPath id="1862e6f084"><path d="M 66.578125 269.855469 L 1420.71875 269.855469 L 1420.71875 282.640625 L 66.578125 282.640625 Z M 66.578125 269.855469 " clip-rule="nonzero"/></clipPath><clipPath id="c45bce1910"><path d="M 0.578125 0.855469 L 1354.71875 0.855469 L 1354.71875 13.640625 L 0.578125 13.640625 Z M 0.578125 0.855469 " clip-rule="nonzero"/></clipPath><clipPath id="5053ddcc0a"><rect x="0" width="1355" y="0" height="14"/></clipPath></defs><g fill="#ffffff" fill-opacity="1"><g transform="translate(62.203169, 253.698626)"><g><path d="M 52.53125 1.59375 C 43.34375 1.59375 35.285156 -0.0351562 28.359375 -3.296875 C 21.441406 -6.554688 16.082031 -11.148438 12.28125 -17.078125 C 8.488281 -23.003906 6.59375 -29.832031 6.59375 -37.5625 L 6.59375 -42.75 C 6.59375 -43.414062 6.820312 -43.976562 7.28125 -44.4375 C 7.75 -44.90625 8.316406 -45.140625 8.984375 -45.140625 L 31.96875 -45.140625 C 32.632812 -45.140625 33.195312 -44.90625 33.65625 -44.4375 C 34.125 -43.976562 34.359375 -43.414062 34.359375 -42.75 L 34.359375 -38.953125 C 34.359375 -34.296875 36.085938 -30.398438 39.546875 -27.265625 C 43.015625 -24.140625 47.675781 -22.578125 53.53125 -22.578125 C 58.726562 -22.578125 62.691406 -23.90625 65.421875 -26.5625 C 68.148438 -29.226562 69.515625 -32.625 69.515625 -36.75 C 69.515625 -39.8125 68.648438 -42.441406 66.921875 -44.640625 C 65.191406 -46.835938 62.757812 -48.898438 59.625 -50.828125 C 56.5 -52.765625 51.671875 -55.398438 45.140625 -58.734375 C 37.148438 -62.722656 30.625 -66.445312 25.5625 -69.90625 C 20.507812 -73.375 16.179688 -77.835938 12.578125 -83.296875 C 8.984375 -88.765625 7.1875 -95.359375 7.1875 -103.078125 C 7.1875 -110.804688 9.015625 -117.566406 12.671875 -123.359375 C 16.335938 -129.148438 21.5 -133.609375 28.15625 -136.734375 C 34.820312 -139.867188 42.414062 -141.4375 50.9375 -141.4375 C 59.863281 -141.4375 67.785156 -139.738281 74.703125 -136.34375 C 81.628906 -132.945312 87.023438 -128.1875 90.890625 -122.0625 C 94.753906 -115.9375 96.6875 -108.875 96.6875 -100.875 L 96.6875 -96.890625 C 96.6875 -96.222656 96.453125 -95.65625 95.984375 -95.1875 C 95.515625 -94.71875 94.953125 -94.484375 94.296875 -94.484375 L 71.3125 -94.484375 C 70.644531 -94.484375 70.078125 -94.71875 69.609375 -95.1875 C 69.148438 -95.65625 68.921875 -96.222656 68.921875 -96.890625 L 68.921875 -100.484375 C 68.921875 -105.273438 67.253906 -109.269531 63.921875 -112.46875 C 60.597656 -115.664062 56.070312 -117.265625 50.34375 -117.265625 C 45.550781 -117.265625 41.785156 -116.03125 39.046875 -113.5625 C 36.316406 -111.101562 34.953125 -107.675781 34.953125 -103.28125 C 34.953125 -100.21875 35.75 -97.550781 37.34375 -95.28125 C 38.945312 -93.019531 41.410156 -90.859375 44.734375 -88.796875 C 48.066406 -86.734375 53.132812 -84.035156 59.9375 -80.703125 L 64.125 -78.3125 C 71.851562 -74.050781 77.878906 -70.351562 82.203125 -67.21875 C 86.535156 -64.09375 90.164062 -60.128906 93.09375 -55.328125 C 96.019531 -50.535156 97.484375 -44.742188 97.484375 -37.953125 C 97.484375 -25.835938 93.390625 -16.21875 85.203125 -9.09375 C 77.015625 -1.96875 66.125 1.59375 52.53125 1.59375 Z M 52.53125 1.59375 "/></g></g></g><g fill="#ffffff" fill-opacity="1"><g transform="translate(173.875132, 253.698626)"><g><path d="M 97.484375 -139.84375 C 98.148438 -139.84375 98.71875 -139.609375 99.1875 -139.140625 C 99.65625 -138.671875 99.890625 -138.101562 99.890625 -137.4375 L 99.890625 -117.859375 C 99.890625 -117.191406 99.65625 -116.625 99.1875 -116.15625 C 98.71875 -115.695312 98.148438 -115.46875 97.484375 -115.46875 L 67.125 -115.46875 C 66.457031 -115.46875 66.125 -115.132812 66.125 -114.46875 L 66.125 -2.390625 C 66.125 -1.722656 65.890625 -1.15625 65.421875 -0.6875 C 64.953125 -0.226562 64.382812 0 63.71875 0 L 40.359375 0 C 39.691406 0 39.125 -0.226562 38.65625 -0.6875 C 38.1875 -1.15625 37.953125 -1.722656 37.953125 -2.390625 L 37.953125 -114.46875 C 37.953125 -115.132812 37.617188 -115.46875 36.953125 -115.46875 L 7.59375 -115.46875 C 6.925781 -115.46875 6.359375 -115.695312 5.890625 -116.15625 C 5.421875 -116.625 5.1875 -117.191406 5.1875 -117.859375 L 5.1875 -137.4375 C 5.1875 -138.101562 5.421875 -138.671875 5.890625 -139.140625 C 6.359375 -139.609375 6.925781 -139.84375 7.59375 -139.84375 Z M 97.484375 -139.84375 "/></g></g></g><g fill="#ffffff" fill-opacity="1"><g transform="translate(288.144134, 253.698626)"><g><path d="M 76.3125 0 C 74.84375 0 73.910156 -0.664062 73.515625 -2 L 53.34375 -57.140625 C 53.070312 -57.671875 52.738281 -57.9375 52.34375 -57.9375 L 39.75 -57.9375 C 39.082031 -57.9375 38.75 -57.601562 38.75 -56.9375 L 38.75 -2.390625 C 38.75 -1.722656 38.515625 -1.15625 38.046875 -0.6875 C 37.585938 -0.226562 37.023438 0 36.359375 0 L 12.984375 0 C 12.316406 0 11.75 -0.226562 11.28125 -0.6875 C 10.820312 -1.15625 10.59375 -1.722656 10.59375 -2.390625 L 10.59375 -137.4375 C 10.59375 -138.101562 10.820312 -138.671875 11.28125 -139.140625 C 11.75 -139.609375 12.316406 -139.84375 12.984375 -139.84375 L 61.734375 -139.84375 C 69.585938 -139.84375 76.578125 -138.078125 82.703125 -134.546875 C 88.828125 -131.015625 93.550781 -126.050781 96.875 -119.65625 C 100.207031 -113.269531 101.875 -105.945312 101.875 -97.6875 C 101.875 -89.164062 100.007812 -81.773438 96.28125 -75.515625 C 92.550781 -69.253906 87.289062 -64.59375 80.5 -61.53125 C 79.832031 -61.257812 79.632812 -60.789062 79.90625 -60.125 L 102.671875 -2.796875 C 102.804688 -2.523438 102.875 -2.191406 102.875 -1.796875 C 102.875 -0.597656 102.144531 0 100.6875 0 Z M 39.75 -115.671875 C 39.082031 -115.671875 38.75 -115.335938 38.75 -114.671875 L 38.75 -80.5 C 38.75 -79.832031 39.082031 -79.5 39.75 -79.5 L 57.140625 -79.5 C 62.066406 -79.5 66.0625 -81.128906 69.125 -84.390625 C 72.1875 -87.660156 73.71875 -92.023438 73.71875 -97.484375 C 73.71875 -103.078125 72.1875 -107.503906 69.125 -110.765625 C 66.0625 -114.035156 62.066406 -115.671875 57.140625 -115.671875 Z M 39.75 -115.671875 "/></g></g></g><g fill="#ffffff" fill-opacity="1"><g transform="translate(405.80921, 253.698626)"><g><path d="M 95.6875 -118.0625 C 95.6875 -117.394531 95.453125 -116.828125 94.984375 -116.359375 C 94.523438 -115.898438 93.960938 -115.671875 93.296875 -115.671875 L 39.75 -115.671875 C 39.082031 -115.671875 38.75 -115.335938 38.75 -114.671875 L 38.75 -83.5 C 38.75 -82.832031 39.082031 -82.5 39.75 -82.5 L 73.109375 -82.5 C 73.773438 -82.5 74.34375 -82.265625 74.8125 -81.796875 C 75.28125 -81.335938 75.515625 -80.773438 75.515625 -80.109375 L 75.515625 -60.734375 C 75.515625 -60.066406 75.28125 -59.5 74.8125 -59.03125 C 74.34375 -58.5625 73.773438 -58.328125 73.109375 -58.328125 L 39.75 -58.328125 C 39.082031 -58.328125 38.75 -57.992188 38.75 -57.328125 L 38.75 -25.171875 C 38.75 -24.503906 39.082031 -24.171875 39.75 -24.171875 L 93.296875 -24.171875 C 93.960938 -24.171875 94.523438 -23.9375 94.984375 -23.46875 C 95.453125 -23 95.6875 -22.4375 95.6875 -21.78125 L 95.6875 -2.390625 C 95.6875 -1.722656 95.453125 -1.15625 94.984375 -0.6875 C 94.523438 -0.226562 93.960938 0 93.296875 0 L 12.984375 0 C 12.316406 0 11.75 -0.226562 11.28125 -0.6875 C 10.820312 -1.15625 10.59375 -1.722656 10.59375 -2.390625 L 10.59375 -137.4375 C 10.59375 -138.101562 10.820312 -138.671875 11.28125 -139.140625 C 11.75 -139.609375 12.316406 -139.84375 12.984375 -139.84375 L 93.296875 -139.84375 C 93.960938 -139.84375 94.523438 -139.609375 94.984375 -139.140625 C 95.453125 -138.671875 95.6875 -138.101562 95.6875 -137.4375 Z M 95.6875 -118.0625 "/></g></g></g><g fill="#ffffff" fill-opacity="1"><g transform="translate(517.081701, 253.698626)"><g><path d="M 12.984375 0 C 12.316406 0 11.75 -0.226562 11.28125 -0.6875 C 10.820312 -1.15625 10.59375 -1.722656 10.59375 -2.390625 L 10.59375 -137.4375 C 10.59375 -138.101562 10.820312 -138.671875 11.28125 -139.140625 C 11.75 -139.609375 12.316406 -139.84375 12.984375 -139.84375 L 36.359375 -139.84375 C 37.023438 -139.84375 37.585938 -139.609375 38.046875 -139.140625 C 38.515625 -138.671875 38.75 -138.101562 38.75 -137.4375 L 38.75 -2.390625 C 38.75 -1.722656 38.515625 -1.15625 38.046875 -0.6875 C 37.585938 -0.226562 37.023438 0 36.359375 0 Z M 12.984375 0 "/></g></g></g><g fill="#ffffff" fill-opacity="1"><g transform="translate(575.414821, 253.698626)"><g><path d="M 53.9375 1.59375 C 44.882812 1.59375 36.894531 -0.203125 29.96875 -3.796875 C 23.039062 -7.390625 17.675781 -12.515625 13.875 -19.171875 C 10.082031 -25.835938 8.1875 -33.5625 8.1875 -42.34375 L 8.1875 -97.890625 C 8.1875 -106.546875 10.082031 -114.164062 13.875 -120.75 C 17.675781 -127.34375 23.039062 -132.4375 29.96875 -136.03125 C 36.894531 -139.632812 44.882812 -141.4375 53.9375 -141.4375 C 62.988281 -141.4375 70.976562 -139.671875 77.90625 -136.140625 C 84.832031 -132.609375 90.191406 -127.644531 93.984375 -121.25 C 97.785156 -114.863281 99.6875 -107.410156 99.6875 -98.890625 L 99.6875 -97.890625 C 99.6875 -97.222656 99.453125 -96.617188 98.984375 -96.078125 C 98.515625 -95.546875 97.945312 -95.28125 97.28125 -95.28125 L 73.90625 -94.296875 C 72.3125 -94.296875 71.515625 -95.023438 71.515625 -96.484375 L 71.515625 -99.078125 C 71.515625 -104.546875 69.914062 -108.941406 66.71875 -112.265625 C 63.519531 -115.597656 59.257812 -117.265625 53.9375 -117.265625 C 48.613281 -117.265625 44.351562 -115.597656 41.15625 -112.265625 C 37.957031 -108.941406 36.359375 -104.546875 36.359375 -99.078125 L 36.359375 -40.546875 C 36.359375 -35.085938 37.957031 -30.726562 41.15625 -27.46875 C 44.351562 -24.207031 48.613281 -22.578125 53.9375 -22.578125 C 59.257812 -22.578125 63.519531 -24.207031 66.71875 -27.46875 C 69.914062 -30.726562 71.515625 -35.085938 71.515625 -40.546875 L 71.515625 -43.15625 C 71.515625 -44.613281 72.3125 -45.34375 73.90625 -45.34375 L 97.28125 -44.34375 C 97.945312 -44.34375 98.515625 -44.109375 98.984375 -43.640625 C 99.453125 -43.179688 99.6875 -42.617188 99.6875 -41.953125 L 99.6875 -41.34375 C 99.6875 -32.820312 97.785156 -25.296875 93.984375 -18.765625 C 90.191406 -12.242188 84.832031 -7.21875 77.90625 -3.6875 C 70.976562 -0.164062 62.988281 1.59375 53.9375 1.59375 Z M 53.9375 1.59375 "/></g></g></g><g fill="#ffffff" fill-opacity="1"><g transform="translate(691.681497, 253.698626)"><g><path d="M 72.71875 -137.4375 C 72.71875 -138.101562 72.945312 -138.671875 73.40625 -139.140625 C 73.875 -139.609375 74.441406 -139.84375 75.109375 -139.84375 L 98.484375 -139.84375 C 99.148438 -139.84375 99.710938 -139.609375 100.171875 -139.140625 C 100.640625 -138.671875 100.875 -138.101562 100.875 -137.4375 L 100.875 -2.390625 C 100.875 -1.722656 100.640625 -1.15625 100.171875 -0.6875 C 99.710938 -0.226562 99.148438 0 98.484375 0 L 75.109375 0 C 74.441406 0 73.875 -0.226562 73.40625 -0.6875 C 72.945312 -1.15625 72.71875 -1.722656 72.71875 -2.390625 L 72.71875 -57.140625 C 72.71875 -57.796875 72.382812 -58.125 71.71875 -58.125 L 39.75 -58.125 C 39.082031 -58.125 38.75 -57.796875 38.75 -57.140625 L 38.75 -2.390625 C 38.75 -1.722656 38.515625 -1.15625 38.046875 -0.6875 C 37.585938 -0.226562 37.023438 0 36.359375 0 L 12.984375 0 C 12.316406 0 11.75 -0.226562 11.28125 -0.6875 C 10.820312 -1.15625 10.59375 -1.722656 10.59375 -2.390625 L 10.59375 -137.4375 C 10.59375 -138.101562 10.820312 -138.671875 11.28125 -139.140625 C 11.75 -139.609375 12.316406 -139.84375 12.984375 -139.84375 L 36.359375 -139.84375 C 37.023438 -139.84375 37.585938 -139.609375 38.046875 -139.140625 C 38.515625 -138.671875 38.75 -138.101562 38.75 -137.4375 L 38.75 -83.5 C 38.75 -82.832031 39.082031 -82.5 39.75 -82.5 L 71.71875 -82.5 C 72.382812 -82.5 72.71875 -82.832031 72.71875 -83.5 Z M 72.71875 -137.4375 "/></g></g></g><g fill="#ffffff" fill-opacity="1"><g transform="translate(864.723644, 253.698626)"><g><path d="M 95.484375 -118.0625 C 95.484375 -117.394531 95.25 -116.828125 94.78125 -116.359375 C 94.320312 -115.898438 93.757812 -115.671875 93.09375 -115.671875 L 39.75 -115.671875 C 39.082031 -115.671875 38.75 -115.335938 38.75 -114.671875 L 38.75 -83.5 C 38.75 -82.832031 39.082031 -82.5 39.75 -82.5 L 72.921875 -82.5 C 73.578125 -82.5 74.140625 -82.265625 74.609375 -81.796875 C 75.078125 -81.335938 75.3125 -80.773438 75.3125 -80.109375 L 75.3125 -60.734375 C 75.3125 -60.066406 75.078125 -59.5 74.609375 -59.03125 C 74.140625 -58.5625 73.578125 -58.328125 72.921875 -58.328125 L 39.75 -58.328125 C 39.082031 -58.328125 38.75 -57.992188 38.75 -57.328125 L 38.75 -2.390625 C 38.75 -1.722656 38.515625 -1.15625 38.046875 -0.6875 C 37.585938 -0.226562 37.023438 0 36.359375 0 L 12.984375 0 C 12.316406 0 11.75 -0.226562 11.28125 -0.6875 C 10.820312 -1.15625 10.59375 -1.722656 10.59375 -2.390625 L 10.59375 -137.4375 C 10.59375 -138.101562 10.820312 -138.671875 11.28125 -139.140625 C 11.75 -139.609375 12.316406 -139.84375 12.984375 -139.84375 L 93.09375 -139.84375 C 93.757812 -139.84375 94.320312 -139.609375 94.78125 -139.140625 C 95.25 -138.671875 95.484375 -138.101562 95.484375 -137.4375 Z M 95.484375 -118.0625 "/></g></g></g><g fill="#ffffff" fill-opacity="1"><g transform="translate(971.601099, 253.698626)"><g><path d="M 54.53125 1.796875 C 45.34375 1.796875 37.253906 -0.0664062 30.265625 -3.796875 C 23.273438 -7.523438 17.847656 -12.785156 13.984375 -19.578125 C 10.117188 -26.367188 8.1875 -34.289062 8.1875 -43.34375 L 8.1875 -96.484375 C 8.1875 -105.410156 10.117188 -113.269531 13.984375 -120.0625 C 17.847656 -126.851562 23.273438 -132.113281 30.265625 -135.84375 C 37.253906 -139.570312 45.34375 -141.4375 54.53125 -141.4375 C 63.71875 -141.4375 71.84375 -139.570312 78.90625 -135.84375 C 85.96875 -132.113281 91.425781 -126.851562 95.28125 -120.0625 C 99.144531 -113.269531 101.078125 -105.410156 101.078125 -96.484375 L 101.078125 -43.34375 C 101.078125 -34.289062 99.144531 -26.367188 95.28125 -19.578125 C 91.425781 -12.785156 85.96875 -7.523438 78.90625 -3.796875 C 71.84375 -0.0664062 63.71875 1.796875 54.53125 1.796875 Z M 54.53125 -22.375 C 60.125 -22.375 64.585938 -24.203125 67.921875 -27.859375 C 71.253906 -31.523438 72.921875 -36.289062 72.921875 -42.15625 L 72.921875 -97.28125 C 72.921875 -103.28125 71.253906 -108.109375 67.921875 -111.765625 C 64.585938 -115.429688 60.125 -117.265625 54.53125 -117.265625 C 49.070312 -117.265625 44.675781 -115.429688 41.34375 -111.765625 C 38.019531 -108.109375 36.359375 -103.28125 36.359375 -97.28125 L 36.359375 -42.15625 C 36.359375 -36.289062 38.019531 -31.523438 41.34375 -27.859375 C 44.675781 -24.203125 49.070312 -22.375 54.53125 -22.375 Z M 54.53125 -22.375 "/></g></g></g><g fill="#ffffff" fill-opacity="1"><g transform="translate(1090.065288, 253.698626)"><g><path d="M 76.3125 0 C 74.84375 0 73.910156 -0.664062 73.515625 -2 L 53.34375 -57.140625 C 53.070312 -57.671875 52.738281 -57.9375 52.34375 -57.9375 L 39.75 -57.9375 C 39.082031 -57.9375 38.75 -57.601562 38.75 -56.9375 L 38.75 -2.390625 C 38.75 -1.722656 38.515625 -1.15625 38.046875 -0.6875 C 37.585938 -0.226562 37.023438 0 36.359375 0 L 12.984375 0 C 12.316406 0 11.75 -0.226562 11.28125 -0.6875 C 10.820312 -1.15625 10.59375 -1.722656 10.59375 -2.390625 L 10.59375 -137.4375 C 10.59375 -138.101562 10.820312 -138.671875 11.28125 -139.140625 C 11.75 -139.609375 12.316406 -139.84375 12.984375 -139.84375 L 61.734375 -139.84375 C 69.585938 -139.84375 76.578125 -138.078125 82.703125 -134.546875 C 88.828125 -131.015625 93.550781 -126.050781 96.875 -119.65625 C 100.207031 -113.269531 101.875 -105.945312 101.875 -97.6875 C 101.875 -89.164062 100.007812 -81.773438 96.28125 -75.515625 C 92.550781 -69.253906 87.289062 -64.59375 80.5 -61.53125 C 79.832031 -61.257812 79.632812 -60.789062 79.90625 -60.125 L 102.671875 -2.796875 C 102.804688 -2.523438 102.875 -2.191406 102.875 -1.796875 C 102.875 -0.597656 102.144531 0 100.6875 0 Z M 39.75 -115.671875 C 39.082031 -115.671875 38.75 -115.335938 38.75 -114.671875 L 38.75 -80.5 C 38.75 -79.832031 39.082031 -79.5 39.75 -79.5 L 57.140625 -79.5 C 62.066406 -79.5 66.0625 -81.128906 69.125 -84.390625 C 72.1875 -87.660156 73.71875 -92.023438 73.71875 -97.484375 C 73.71875 -103.078125 72.1875 -107.503906 69.125 -110.765625 C 66.0625 -114.035156 62.066406 -115.671875 57.140625 -115.671875 Z M 39.75 -115.671875 "/></g></g></g><g fill="#ffffff" fill-opacity="1"><g transform="translate(1207.730365, 253.698626)"><g><path d="M 53.9375 1.59375 C 44.882812 1.59375 36.894531 -0.203125 29.96875 -3.796875 C 23.039062 -7.390625 17.675781 -12.515625 13.875 -19.171875 C 10.082031 -25.835938 8.1875 -33.5625 8.1875 -42.34375 L 8.1875 -97.890625 C 8.1875 -106.546875 10.082031 -114.164062 13.875 -120.75 C 17.675781 -127.34375 23.039062 -132.4375 29.96875 -136.03125 C 36.894531 -139.632812 44.882812 -141.4375 53.9375 -141.4375 C 62.988281 -141.4375 70.976562 -139.671875 77.90625 -136.140625 C 84.832031 -132.609375 90.191406 -127.644531 93.984375 -121.25 C 97.785156 -114.863281 99.6875 -107.410156 99.6875 -98.890625 L 99.6875 -97.890625 C 99.6875 -97.222656 99.453125 -96.617188 98.984375 -96.078125 C 98.515625 -95.546875 97.945312 -95.28125 97.28125 -95.28125 L 73.90625 -94.296875 C 72.3125 -94.296875 71.515625 -95.023438 71.515625 -96.484375 L 71.515625 -99.078125 C 71.515625 -104.546875 69.914062 -108.941406 66.71875 -112.265625 C 63.519531 -115.597656 59.257812 -117.265625 53.9375 -117.265625 C 48.613281 -117.265625 44.351562 -115.597656 41.15625 -112.265625 C 37.957031 -108.941406 36.359375 -104.546875 36.359375 -99.078125 L 36.359375 -40.546875 C 36.359375 -35.085938 37.957031 -30.726562 41.15625 -27.46875 C 44.351562 -24.207031 48.613281 -22.578125 53.9375 -22.578125 C 59.257812 -22.578125 63.519531 -24.207031 66.71875 -27.46875 C 69.914062 -30.726562 71.515625 -35.085938 71.515625 -40.546875 L 71.515625 -43.15625 C 71.515625 -44.613281 72.3125 -45.34375 73.90625 -45.34375 L 97.28125 -44.34375 C 97.945312 -44.34375 98.515625 -44.109375 98.984375 -43.640625 C 99.453125 -43.179688 99.6875 -42.617188 99.6875 -41.953125 L 99.6875 -41.34375 C 99.6875 -32.820312 97.785156 -25.296875 93.984375 -18.765625 C 90.191406 -12.242188 84.832031 -7.21875 77.90625 -3.6875 C 70.976562 -0.164062 62.988281 1.59375 53.9375 1.59375 Z M 53.9375 1.59375 "/></g></g></g><g fill="#ffffff" fill-opacity="1"><g transform="translate(1323.997088, 253.698626)"><g><path d="M 95.6875 -118.0625 C 95.6875 -117.394531 95.453125 -116.828125 94.984375 -116.359375 C 94.523438 -115.898438 93.960938 -115.671875 93.296875 -115.671875 L 39.75 -115.671875 C 39.082031 -115.671875 38.75 -115.335938 38.75 -114.671875 L 38.75 -83.5 C 38.75 -82.832031 39.082031 -82.5 39.75 -82.5 L 73.109375 -82.5 C 73.773438 -82.5 74.34375 -82.265625 74.8125 -81.796875 C 75.28125 -81.335938 75.515625 -80.773438 75.515625 -80.109375 L 75.515625 -60.734375 C 75.515625 -60.066406 75.28125 -59.5 74.8125 -59.03125 C 74.34375 -58.5625 73.773438 -58.328125 73.109375 -58.328125 L 39.75 -58.328125 C 39.082031 -58.328125 38.75 -57.992188 38.75 -57.328125 L 38.75 -25.171875 C 38.75 -24.503906 39.082031 -24.171875 39.75 -24.171875 L 93.296875 -24.171875 C 93.960938 -24.171875 94.523438 -23.9375 94.984375 -23.46875 C 95.453125 -23 95.6875 -22.4375 95.6875 -21.78125 L 95.6875 -2.390625 C 95.6875 -1.722656 95.453125 -1.15625 94.984375 -0.6875 C 94.523438 -0.226562 93.960938 0 93.296875 0 L 12.984375 0 C 12.316406 0 11.75 -0.226562 11.28125 -0.6875 C 10.820312 -1.15625 10.59375 -1.722656 10.59375 -2.390625 L 10.59375 -137.4375 C 10.59375 -138.101562 10.820312 -138.671875 11.28125 -139.140625 C 11.75 -139.609375 12.316406 -139.84375 12.984375 -139.84375 L 93.296875 -139.84375 C 93.960938 -139.84375 94.523438 -139.609375 94.984375 -139.140625 C 95.453125 -138.671875 95.6875 -138.101562 95.6875 -137.4375 Z M 95.6875 -118.0625 "/></g></g></g><g fill="#ffffff" fill-opacity="1"><g transform="translate(173.478548, 368.987243)"><g><path d="M 54.625 -59.03125 C 54.625 -58.695312 54.507812 -58.410156 54.28125 -58.171875 C 54.050781 -57.941406 53.769531 -57.828125 53.4375 -57.828125 L 20.671875 -57.828125 C 20.335938 -57.828125 20.171875 -57.660156 20.171875 -57.328125 L 20.171875 -41.84375 C 20.171875 -41.507812 20.335938 -41.34375 20.671875 -41.34375 L 42.140625 -41.34375 C 42.472656 -41.34375 42.753906 -41.226562 42.984375 -41 C 43.222656 -40.769531 43.34375 -40.488281 43.34375 -40.15625 L 43.34375 -30.46875 C 43.34375 -30.132812 43.222656 -29.847656 42.984375 -29.609375 C 42.753906 -29.378906 42.472656 -29.265625 42.140625 -29.265625 L 20.671875 -29.265625 C 20.335938 -29.265625 20.171875 -29.097656 20.171875 -28.765625 L 20.171875 -12.578125 C 20.171875 -12.242188 20.335938 -12.078125 20.671875 -12.078125 L 53.4375 -12.078125 C 53.769531 -12.078125 54.050781 -11.960938 54.28125 -11.734375 C 54.507812 -11.503906 54.625 -11.222656 54.625 -10.890625 L 54.625 -1.203125 C 54.625 -0.867188 54.507812 -0.582031 54.28125 -0.34375 C 54.050781 -0.113281 53.769531 0 53.4375 0 L 7.296875 0 C 6.960938 0 6.675781 -0.113281 6.4375 -0.34375 C 6.207031 -0.582031 6.09375 -0.867188 6.09375 -1.203125 L 6.09375 -68.71875 C 6.09375 -69.050781 6.207031 -69.332031 6.4375 -69.5625 C 6.675781 -69.789062 6.960938 -69.90625 7.296875 -69.90625 L 53.4375 -69.90625 C 53.769531 -69.90625 54.050781 -69.789062 54.28125 -69.5625 C 54.507812 -69.332031 54.625 -69.050781 54.625 -68.71875 Z M 54.625 -59.03125 "/></g></g></g><g fill="#ffffff" fill-opacity="1"><g transform="translate(284.643331, 368.987243)"><g><path d="M 46.234375 -68.71875 C 46.234375 -69.050781 46.347656 -69.332031 46.578125 -69.5625 C 46.816406 -69.789062 47.101562 -69.90625 47.4375 -69.90625 L 59.125 -69.90625 C 59.457031 -69.90625 59.738281 -69.789062 59.96875 -69.5625 C 60.207031 -69.332031 60.328125 -69.050781 60.328125 -68.71875 L 60.328125 -1.203125 C 60.328125 -0.867188 60.207031 -0.582031 59.96875 -0.34375 C 59.738281 -0.113281 59.457031 0 59.125 0 L 47.84375 0 C 47.175781 0 46.707031 -0.265625 46.4375 -0.796875 L 20.578125 -43.546875 C 20.441406 -43.742188 20.304688 -43.828125 20.171875 -43.796875 C 20.035156 -43.765625 19.96875 -43.613281 19.96875 -43.34375 L 20.171875 -1.203125 C 20.171875 -0.867188 20.050781 -0.582031 19.8125 -0.34375 C 19.582031 -0.113281 19.300781 0 18.96875 0 L 7.296875 0 C 6.960938 0 6.675781 -0.113281 6.4375 -0.34375 C 6.207031 -0.582031 6.09375 -0.867188 6.09375 -1.203125 L 6.09375 -68.71875 C 6.09375 -69.050781 6.207031 -69.332031 6.4375 -69.5625 C 6.675781 -69.789062 6.960938 -69.90625 7.296875 -69.90625 L 18.578125 -69.90625 C 19.242188 -69.90625 19.707031 -69.640625 19.96875 -69.109375 L 45.75 -26.5625 C 45.875 -26.363281 46.003906 -26.28125 46.140625 -26.3125 C 46.273438 -26.34375 46.34375 -26.492188 46.34375 -26.765625 Z M 46.234375 -68.71875 "/></g></g></g><g fill="#ffffff" fill-opacity="1"><g transform="translate(403.89814, 368.987243)"><g><path d="M 54.328125 -69.90625 C 54.660156 -69.90625 54.941406 -69.789062 55.171875 -69.5625 C 55.410156 -69.332031 55.53125 -69.050781 55.53125 -68.71875 L 55.53125 -58.921875 C 55.53125 -58.585938 55.410156 -58.304688 55.171875 -58.078125 C 54.941406 -57.847656 54.660156 -57.734375 54.328125 -57.734375 L 36.453125 -57.734375 C 36.117188 -57.734375 35.953125 -57.566406 35.953125 -57.234375 L 35.953125 -1.203125 C 35.953125 -0.867188 35.832031 -0.582031 35.59375 -0.34375 C 35.363281 -0.113281 35.082031 0 34.75 0 L 23.078125 0 C 22.742188 0 22.457031 -0.113281 22.21875 -0.34375 C 21.988281 -0.582031 21.875 -0.867188 21.875 -1.203125 L 21.875 -57.234375 C 21.875 -57.566406 21.707031 -57.734375 21.375 -57.734375 L 4 -57.734375 C 3.664062 -57.734375 3.378906 -57.847656 3.140625 -58.078125 C 2.910156 -58.304688 2.796875 -58.585938 2.796875 -58.921875 L 2.796875 -68.71875 C 2.796875 -69.050781 2.910156 -69.332031 3.140625 -69.5625 C 3.378906 -69.789062 3.664062 -69.90625 4 -69.90625 Z M 54.328125 -69.90625 "/></g></g></g><g fill="#ffffff" fill-opacity="1"><g transform="translate(515.162813, 368.987243)"><g><path d="M 54.625 -59.03125 C 54.625 -58.695312 54.507812 -58.410156 54.28125 -58.171875 C 54.050781 -57.941406 53.769531 -57.828125 53.4375 -57.828125 L 20.671875 -57.828125 C 20.335938 -57.828125 20.171875 -57.660156 20.171875 -57.328125 L 20.171875 -41.84375 C 20.171875 -41.507812 20.335938 -41.34375 20.671875 -41.34375 L 42.140625 -41.34375 C 42.472656 -41.34375 42.753906 -41.226562 42.984375 -41 C 43.222656 -40.769531 43.34375 -40.488281 43.34375 -40.15625 L 43.34375 -30.46875 C 43.34375 -30.132812 43.222656 -29.847656 42.984375 -29.609375 C 42.753906 -29.378906 42.472656 -29.265625 42.140625 -29.265625 L 20.671875 -29.265625 C 20.335938 -29.265625 20.171875 -29.097656 20.171875 -28.765625 L 20.171875 -12.578125 C 20.171875 -12.242188 20.335938 -12.078125 20.671875 -12.078125 L 53.4375 -12.078125 C 53.769531 -12.078125 54.050781 -11.960938 54.28125 -11.734375 C 54.507812 -11.503906 54.625 -11.222656 54.625 -10.890625 L 54.625 -1.203125 C 54.625 -0.867188 54.507812 -0.582031 54.28125 -0.34375 C 54.050781 -0.113281 53.769531 0 53.4375 0 L 7.296875 0 C 6.960938 0 6.675781 -0.113281 6.4375 -0.34375 C 6.207031 -0.582031 6.09375 -0.867188 6.09375 -1.203125 L 6.09375 -68.71875 C 6.09375 -69.050781 6.207031 -69.332031 6.4375 -69.5625 C 6.675781 -69.789062 6.960938 -69.90625 7.296875 -69.90625 L 53.4375 -69.90625 C 53.769531 -69.90625 54.050781 -69.789062 54.28125 -69.5625 C 54.507812 -69.332031 54.625 -69.050781 54.625 -68.71875 Z M 54.625 -59.03125 "/></g></g></g><g fill="#ffffff" fill-opacity="1"><g transform="translate(626.327584, 368.987243)"><g><path d="M 44.4375 0 C 43.78125 0 43.316406 -0.300781 43.046875 -0.90625 L 30.5625 -28.5625 C 30.425781 -28.832031 30.226562 -28.96875 29.96875 -28.96875 L 20.671875 -28.96875 C 20.335938 -28.96875 20.171875 -28.800781 20.171875 -28.46875 L 20.171875 -1.203125 C 20.171875 -0.867188 20.050781 -0.582031 19.8125 -0.34375 C 19.582031 -0.113281 19.300781 0 18.96875 0 L 7.296875 0 C 6.960938 0 6.675781 -0.113281 6.4375 -0.34375 C 6.207031 -0.582031 6.09375 -0.867188 6.09375 -1.203125 L 6.09375 -68.71875 C 6.09375 -69.050781 6.207031 -69.332031 6.4375 -69.5625 C 6.675781 -69.789062 6.960938 -69.90625 7.296875 -69.90625 L 35.859375 -69.90625 C 40.117188 -69.90625 43.863281 -69.039062 47.09375 -67.3125 C 50.320312 -65.582031 52.816406 -63.117188 54.578125 -59.921875 C 56.347656 -56.722656 57.234375 -53.03125 57.234375 -48.84375 C 57.234375 -44.3125 56.097656 -40.429688 53.828125 -37.203125 C 51.566406 -33.972656 48.40625 -31.691406 44.34375 -30.359375 C 44.007812 -30.222656 43.910156 -29.988281 44.046875 -29.65625 L 57.625 -1.390625 C 57.757812 -1.128906 57.828125 -0.929688 57.828125 -0.796875 C 57.828125 -0.265625 57.460938 0 56.734375 0 Z M 20.671875 -57.828125 C 20.335938 -57.828125 20.171875 -57.660156 20.171875 -57.328125 L 20.171875 -40.25 C 20.171875 -39.914062 20.335938 -39.75 20.671875 -39.75 L 33.75 -39.75 C 36.550781 -39.75 38.832031 -40.582031 40.59375 -42.25 C 42.363281 -43.914062 43.25 -46.078125 43.25 -48.734375 C 43.25 -51.398438 42.363281 -53.582031 40.59375 -55.28125 C 38.832031 -56.976562 36.550781 -57.828125 33.75 -57.828125 Z M 20.671875 -57.828125 "/></g></g></g><g fill="#ffffff" fill-opacity="1"><g transform="translate(740.488683, 368.987243)"><g><path d="M 34.953125 -70.015625 C 39.347656 -70.015625 43.207031 -69.113281 46.53125 -67.3125 C 49.863281 -65.519531 52.445312 -62.972656 54.28125 -59.671875 C 56.113281 -56.378906 57.03125 -52.601562 57.03125 -48.34375 C 57.03125 -44.144531 56.078125 -40.445312 54.171875 -37.25 C 52.273438 -34.050781 49.613281 -31.570312 46.1875 -29.8125 C 42.757812 -28.050781 38.816406 -27.171875 34.359375 -27.171875 L 20.171875 -27.171875 C 19.835938 -27.171875 19.671875 -27.003906 19.671875 -26.671875 L 19.671875 -1.203125 C 19.671875 -0.867188 19.550781 -0.582031 19.3125 -0.34375 C 19.082031 -0.113281 18.804688 0 18.484375 0 L 6.796875 0 C 6.460938 0 6.175781 -0.113281 5.9375 -0.34375 C 5.707031 -0.582031 5.59375 -0.867188 5.59375 -1.203125 L 5.59375 -68.8125 C 5.59375 -69.144531 5.707031 -69.425781 5.9375 -69.65625 C 6.175781 -69.894531 6.460938 -70.015625 6.796875 -70.015625 Z M 32.859375 -38.453125 C 35.921875 -38.453125 38.382812 -39.332031 40.25 -41.09375 C 42.113281 -42.863281 43.046875 -45.179688 43.046875 -48.046875 C 43.046875 -50.972656 42.113281 -53.332031 40.25 -55.125 C 38.382812 -56.925781 35.921875 -57.828125 32.859375 -57.828125 L 20.171875 -57.828125 C 19.835938 -57.828125 19.671875 -57.660156 19.671875 -57.328125 L 19.671875 -38.953125 C 19.671875 -38.617188 19.835938 -38.453125 20.171875 -38.453125 Z M 32.859375 -38.453125 "/></g></g></g><g fill="#ffffff" fill-opacity="1"><g transform="translate(852.95186, 368.987243)"><g><path d="M 44.4375 0 C 43.78125 0 43.316406 -0.300781 43.046875 -0.90625 L 30.5625 -28.5625 C 30.425781 -28.832031 30.226562 -28.96875 29.96875 -28.96875 L 20.671875 -28.96875 C 20.335938 -28.96875 20.171875 -28.800781 20.171875 -28.46875 L 20.171875 -1.203125 C 20.171875 -0.867188 20.050781 -0.582031 19.8125 -0.34375 C 19.582031 -0.113281 19.300781 0 18.96875 0 L 7.296875 0 C 6.960938 0 6.675781 -0.113281 6.4375 -0.34375 C 6.207031 -0.582031 6.09375 -0.867188 6.09375 -1.203125 L 6.09375 -68.71875 C 6.09375 -69.050781 6.207031 -69.332031 6.4375 -69.5625 C 6.675781 -69.789062 6.960938 -69.90625 7.296875 -69.90625 L 35.859375 -69.90625 C 40.117188 -69.90625 43.863281 -69.039062 47.09375 -67.3125 C 50.320312 -65.582031 52.816406 -63.117188 54.578125 -59.921875 C 56.347656 -56.722656 57.234375 -53.03125 57.234375 -48.84375 C 57.234375 -44.3125 56.097656 -40.429688 53.828125 -37.203125 C 51.566406 -33.972656 48.40625 -31.691406 44.34375 -30.359375 C 44.007812 -30.222656 43.910156 -29.988281 44.046875 -29.65625 L 57.625 -1.390625 C 57.757812 -1.128906 57.828125 -0.929688 57.828125 -0.796875 C 57.828125 -0.265625 57.460938 0 56.734375 0 Z M 20.671875 -57.828125 C 20.335938 -57.828125 20.171875 -57.660156 20.171875 -57.328125 L 20.171875 -40.25 C 20.171875 -39.914062 20.335938 -39.75 20.671875 -39.75 L 33.75 -39.75 C 36.550781 -39.75 38.832031 -40.582031 40.59375 -42.25 C 42.363281 -43.914062 43.25 -46.078125 43.25 -48.734375 C 43.25 -51.398438 42.363281 -53.582031 40.59375 -55.28125 C 38.832031 -56.976562 36.550781 -57.828125 33.75 -57.828125 Z M 20.671875 -57.828125 "/></g></g></g><g fill="#ffffff" fill-opacity="1"><g transform="translate(967.112913, 368.987243)"><g><path d="M 7.296875 0 C 6.960938 0 6.675781 -0.113281 6.4375 -0.34375 C 6.207031 -0.582031 6.09375 -0.867188 6.09375 -1.203125 L 6.09375 -68.71875 C 6.09375 -69.050781 6.207031 -69.332031 6.4375 -69.5625 C 6.675781 -69.789062 6.960938 -69.90625 7.296875 -69.90625 L 18.96875 -69.90625 C 19.300781 -69.90625 19.582031 -69.789062 19.8125 -69.5625 C 20.050781 -69.332031 20.171875 -69.050781 20.171875 -68.71875 L 20.171875 -1.203125 C 20.171875 -0.867188 20.050781 -0.582031 19.8125 -0.34375 C 19.582031 -0.113281 19.300781 0 18.96875 0 Z M 7.296875 0 "/></g></g></g><g fill="#ffffff" fill-opacity="1"><g transform="translate(1046.217281, 368.987243)"><g><path d="M 30.0625 0.796875 C 24.738281 0.796875 20.078125 -0.0507812 16.078125 -1.75 C 12.085938 -3.445312 9.007812 -5.875 6.84375 -9.03125 C 4.675781 -12.195312 3.59375 -15.878906 3.59375 -20.078125 L 3.59375 -22.265625 C 3.59375 -22.597656 3.707031 -22.878906 3.9375 -23.109375 C 4.175781 -23.347656 4.460938 -23.46875 4.796875 -23.46875 L 16.1875 -23.46875 C 16.507812 -23.46875 16.785156 -23.347656 17.015625 -23.109375 C 17.253906 -22.878906 17.375 -22.597656 17.375 -22.265625 L 17.375 -20.78125 C 17.375 -18.113281 18.601562 -15.863281 21.0625 -14.03125 C 23.53125 -12.195312 26.863281 -11.28125 31.0625 -11.28125 C 34.59375 -11.28125 37.222656 -12.03125 38.953125 -13.53125 C 40.679688 -15.03125 41.546875 -16.878906 41.546875 -19.078125 C 41.546875 -20.671875 41.015625 -22.015625 39.953125 -23.109375 C 38.890625 -24.210938 37.441406 -25.179688 35.609375 -26.015625 C 33.773438 -26.847656 30.859375 -28 26.859375 -29.46875 C 22.398438 -31 18.625 -32.5625 15.53125 -34.15625 C 12.4375 -35.75 9.835938 -37.925781 7.734375 -40.6875 C 5.640625 -43.457031 4.59375 -46.875 4.59375 -50.9375 C 4.59375 -54.925781 5.625 -58.421875 7.6875 -61.421875 C 9.75 -64.421875 12.609375 -66.71875 16.265625 -68.3125 C 19.929688 -69.914062 24.164062 -70.71875 28.96875 -70.71875 C 34.019531 -70.71875 38.523438 -69.816406 42.484375 -68.015625 C 46.453125 -66.210938 49.550781 -63.695312 51.78125 -60.46875 C 54.007812 -57.238281 55.125 -53.492188 55.125 -49.234375 L 55.125 -47.734375 C 55.125 -47.398438 55.007812 -47.117188 54.78125 -46.890625 C 54.550781 -46.660156 54.269531 -46.546875 53.9375 -46.546875 L 42.453125 -46.546875 C 42.117188 -46.546875 41.832031 -46.660156 41.59375 -46.890625 C 41.363281 -47.117188 41.25 -47.398438 41.25 -47.734375 L 41.25 -48.546875 C 41.25 -51.335938 40.097656 -53.710938 37.796875 -55.671875 C 35.503906 -57.640625 32.359375 -58.625 28.359375 -58.625 C 25.234375 -58.625 22.785156 -57.957031 21.015625 -56.625 C 19.253906 -55.289062 18.375 -53.460938 18.375 -51.140625 C 18.375 -49.472656 18.890625 -48.070312 19.921875 -46.9375 C 20.953125 -45.8125 22.484375 -44.796875 24.515625 -43.890625 C 26.546875 -42.992188 29.691406 -41.78125 33.953125 -40.25 C 38.679688 -38.519531 42.394531 -36.988281 45.09375 -35.65625 C 47.789062 -34.320312 50.21875 -32.335938 52.375 -29.703125 C 54.539062 -27.078125 55.625 -23.664062 55.625 -19.46875 C 55.625 -13.21875 53.328125 -8.273438 48.734375 -4.640625 C 44.140625 -1.015625 37.914062 0.796875 30.0625 0.796875 Z M 30.0625 0.796875 "/></g></g></g><g fill="#ffffff" fill-opacity="1"><g transform="translate(1158.4807, 368.987243)"><g><path d="M 54.625 -59.03125 C 54.625 -58.695312 54.507812 -58.410156 54.28125 -58.171875 C 54.050781 -57.941406 53.769531 -57.828125 53.4375 -57.828125 L 20.671875 -57.828125 C 20.335938 -57.828125 20.171875 -57.660156 20.171875 -57.328125 L 20.171875 -41.84375 C 20.171875 -41.507812 20.335938 -41.34375 20.671875 -41.34375 L 42.140625 -41.34375 C 42.472656 -41.34375 42.753906 -41.226562 42.984375 -41 C 43.222656 -40.769531 43.34375 -40.488281 43.34375 -40.15625 L 43.34375 -30.46875 C 43.34375 -30.132812 43.222656 -29.847656 42.984375 -29.609375 C 42.753906 -29.378906 42.472656 -29.265625 42.140625 -29.265625 L 20.671875 -29.265625 C 20.335938 -29.265625 20.171875 -29.097656 20.171875 -28.765625 L 20.171875 -12.578125 C 20.171875 -12.242188 20.335938 -12.078125 20.671875 -12.078125 L 53.4375 -12.078125 C 53.769531 -12.078125 54.050781 -11.960938 54.28125 -11.734375 C 54.507812 -11.503906 54.625 -11.222656 54.625 -10.890625 L 54.625 -1.203125 C 54.625 -0.867188 54.507812 -0.582031 54.28125 -0.34375 C 54.050781 -0.113281 53.769531 0 53.4375 0 L 7.296875 0 C 6.960938 0 6.675781 -0.113281 6.4375 -0.34375 C 6.207031 -0.582031 6.09375 -0.867188 6.09375 -1.203125 L 6.09375 -68.71875 C 6.09375 -69.050781 6.207031 -69.332031 6.4375 -69.5625 C 6.675781 -69.789062 6.960938 -69.90625 7.296875 -69.90625 L 53.4375 -69.90625 C 53.769531 -69.90625 54.050781 -69.789062 54.28125 -69.5625 C 54.507812 -69.332031 54.625 -69.050781 54.625 -68.71875 Z M 54.625 -59.03125 "/></g></g></g><g fill="#ffffff" fill-opacity="1"><g transform="translate(1269.645517, 368.987243)"><g><path d="M 30.0625 0.796875 C 24.738281 0.796875 20.078125 -0.0507812 16.078125 -1.75 C 12.085938 -3.445312 9.007812 -5.875 6.84375 -9.03125 C 4.675781 -12.195312 3.59375 -15.878906 3.59375 -20.078125 L 3.59375 -22.265625 C 3.59375 -22.597656 3.707031 -22.878906 3.9375 -23.109375 C 4.175781 -23.347656 4.460938 -23.46875 4.796875 -23.46875 L 16.1875 -23.46875 C 16.507812 -23.46875 16.785156 -23.347656 17.015625 -23.109375 C 17.253906 -22.878906 17.375 -22.597656 17.375 -22.265625 L 17.375 -20.78125 C 17.375 -18.113281 18.601562 -15.863281 21.0625 -14.03125 C 23.53125 -12.195312 26.863281 -11.28125 31.0625 -11.28125 C 34.59375 -11.28125 37.222656 -12.03125 38.953125 -13.53125 C 40.679688 -15.03125 41.546875 -16.878906 41.546875 -19.078125 C 41.546875 -20.671875 41.015625 -22.015625 39.953125 -23.109375 C 38.890625 -24.210938 37.441406 -25.179688 35.609375 -26.015625 C 33.773438 -26.847656 30.859375 -28 26.859375 -29.46875 C 22.398438 -31 18.625 -32.5625 15.53125 -34.15625 C 12.4375 -35.75 9.835938 -37.925781 7.734375 -40.6875 C 5.640625 -43.457031 4.59375 -46.875 4.59375 -50.9375 C 4.59375 -54.925781 5.625 -58.421875 7.6875 -61.421875 C 9.75 -64.421875 12.609375 -66.71875 16.265625 -68.3125 C 19.929688 -69.914062 24.164062 -70.71875 28.96875 -70.71875 C 34.019531 -70.71875 38.523438 -69.816406 42.484375 -68.015625 C 46.453125 -66.210938 49.550781 -63.695312 51.78125 -60.46875 C 54.007812 -57.238281 55.125 -53.492188 55.125 -49.234375 L 55.125 -47.734375 C 55.125 -47.398438 55.007812 -47.117188 54.78125 -46.890625 C 54.550781 -46.660156 54.269531 -46.546875 53.9375 -46.546875 L 42.453125 -46.546875 C 42.117188 -46.546875 41.832031 -46.660156 41.59375 -46.890625 C 41.363281 -47.117188 41.25 -47.398438 41.25 -47.734375 L 41.25 -48.546875 C 41.25 -51.335938 40.097656 -53.710938 37.796875 -55.671875 C 35.503906 -57.640625 32.359375 -58.625 28.359375 -58.625 C 25.234375 -58.625 22.785156 -57.957031 21.015625 -56.625 C 19.253906 -55.289062 18.375 -53.460938 18.375 -51.140625 C 18.375 -49.472656 18.890625 -48.070312 19.921875 -46.9375 C 20.953125 -45.8125 22.484375 -44.796875 24.515625 -43.890625 C 26.546875 -42.992188 29.691406 -41.78125 33.953125 -40.25 C 38.679688 -38.519531 42.394531 -36.988281 45.09375 -35.65625 C 47.789062 -34.320312 50.21875 -32.335938 52.375 -29.703125 C 54.539062 -27.078125 55.625 -23.664062 55.625 -19.46875 C 55.625 -13.21875 53.328125 -8.273438 48.734375 -4.640625 C 44.140625 -1.015625 37.914062 0.796875 30.0625 0.796875 Z M 30.0625 0.796875 "/></g></g></g><g clip-path="url(#1862e6f084)"><g transform="matrix(1, 0, 0, 1, 66, 269)"><g clip-path="url(#5053ddcc0a)"><g clip-path="url(#c45bce1910)"><path fill="#ffffff" d="M 0.578125 0.855469 L 1354.730469 0.855469 L 1354.730469 13.640625 L 0.578125 13.640625 Z M 0.578125 0.855469 " fill-opacity="1" fill-rule="nonzero"/></g></g></g></g></svg>